<svg width="84" height="101" viewBox="0 0 84 101" fill="none" xmlns="http://www.w3.org/2000/svg">
<rect x="12.9822" y="40.1774" width="70.5357" height="60.7143" fill="#E36649"/>
<path d="M39.3215 0.891663C45.3303 0.891663 51.093 3.60156 55.3418 8.42521C59.5907 13.2489 61.9777 19.7911 61.9777 26.6128H78.1607V96.4274H0.482178V26.6128H16.6652C16.6652 19.7911 19.0522 13.2489 23.3011 8.42521C27.5499 3.60156 33.3126 0.891663 39.3215 0.891663ZM71.6875 33.9617H61.9777V45.3415H55.5045V33.9617H23.1384V45.3415H16.6652V33.9617H6.95539V89.0785H71.6875V33.9617ZM39.3215 8.24056C35.0295 8.24056 30.9132 10.1762 27.8783 13.6217C24.8434 17.0671 23.1384 21.7402 23.1384 26.6128H55.5045C55.5045 21.7402 53.7995 17.0671 50.7646 13.6217C47.7297 10.1762 43.6135 8.24056 39.3215 8.24056Z" fill="black"/>
</svg>
