<svg width="113" height="37" viewBox="0 0 113 37" fill="none" xmlns="http://www.w3.org/2000/svg">
<path d="M27.0355 18.4604C27.0394 20.3387 26.7198 22.2066 26.0876 23.9992C24.7818 27.6865 22.2042 30.9165 18.7188 33.2331C15.1169 35.6231 10.7365 36.9073 6.23955 36.8915V27.6942C7.62966 27.729 9.01351 27.5159 10.3093 27.0677C11.605 26.6194 12.7864 25.9451 13.7835 25.0846C14.7806 24.224 15.5731 23.1948 16.1144 22.0576C16.6556 20.9204 16.9344 19.6985 16.9344 18.464C16.9344 17.2295 16.6556 16.0076 16.1144 14.8704C15.5731 13.7333 14.7806 12.704 13.7835 11.8434C12.7864 10.9829 11.605 10.3086 10.3093 9.86034C9.01351 9.41211 7.62966 9.19907 6.23955 9.23381V-4.06228e-05C9.89216 -0.00246401 13.481 0.849827 16.6443 2.47094C19.8076 4.09205 22.4336 6.42471 24.2578 9.23381C25.0166 10.3902 25.6302 11.617 26.0876 12.8922C26.7225 14.6943 27.0422 16.5722 27.0355 18.4604Z" fill="#006A52"/>
<path d="M6.23961 12.5555V23.6332C4.58476 23.6332 2.99769 23.0497 1.82754 22.0109C0.657385 20.9722 0 19.5634 0 18.0944C0 16.6254 0.657385 15.2165 1.82754 14.1778C2.99769 13.1391 4.58476 12.5555 6.23961 12.5555Z" fill="#FEE000"/>
<path d="M34.7065 11.9777H40.3432C41.6903 11.9777 42.878 12.2377 43.906 12.7577C44.9459 13.2658 45.7495 13.9866 46.3167 14.9202C46.8957 15.8537 47.1853 16.9409 47.1853 18.1817C47.1853 19.4224 46.8957 20.5096 46.3167 21.4431C45.7495 22.3767 44.9459 23.1034 43.906 23.6234C42.878 24.1315 41.6903 24.3856 40.3432 24.3856H34.7065V11.9777ZM40.2014 22.0281C41.4422 22.0281 42.4289 21.6854 43.1616 21C43.906 20.3028 44.2783 19.3634 44.2783 18.1817C44.2783 17 43.906 16.0664 43.1616 15.381C42.4289 14.6838 41.4422 14.3352 40.2014 14.3352H37.578V22.0281H40.2014ZM53.6936 24.5274C52.6891 24.5274 51.7851 24.3206 50.9816 23.907C50.1898 23.4816 49.5694 22.8966 49.1204 22.1522C48.6713 21.4077 48.4468 20.5628 48.4468 19.6174C48.4468 18.6721 48.6713 17.8271 49.1204 17.0827C49.5694 16.3382 50.1898 15.7592 50.9816 15.3456C51.7851 14.9202 52.6891 14.7075 53.6936 14.7075C54.698 14.7075 55.5961 14.9202 56.3878 15.3456C57.1796 15.7592 57.8 16.3382 58.249 17.0827C58.698 17.8271 58.9226 18.6721 58.9226 19.6174C58.9226 20.5628 58.698 21.4077 58.249 22.1522C57.8 22.8966 57.1796 23.4816 56.3878 23.907C55.5961 24.3206 54.698 24.5274 53.6936 24.5274ZM53.6936 22.2585C54.4026 22.2585 54.9816 22.0222 55.4306 21.5495C55.8915 21.065 56.1219 20.421 56.1219 19.6174C56.1219 18.8139 55.8915 18.1757 55.4306 17.7031C54.9816 17.2186 54.4026 16.9763 53.6936 16.9763C52.9845 16.9763 52.3996 17.2186 51.9387 17.7031C51.4779 18.1757 51.2474 18.8139 51.2474 19.6174C51.2474 20.421 51.4779 21.065 51.9387 21.5495C52.3996 22.0222 52.9845 22.2585 53.6936 22.2585ZM63.412 16.1078C63.7428 15.6469 64.186 15.2983 64.7414 15.062C65.3086 14.8256 65.9585 14.7075 66.6912 14.7075V17.2599C66.3839 17.2363 66.1771 17.2245 66.0708 17.2245C65.2791 17.2245 64.6587 17.449 64.2096 17.898C63.7606 18.3353 63.536 18.997 63.536 19.8833V24.3856H60.7709V14.8493H63.412V16.1078ZM77.1939 22.0458V24.3856H67.8172V22.5244L72.603 18.0044C73.1112 17.5199 73.4539 17.1063 73.6311 16.7636C73.8084 16.4091 73.897 16.0605 73.897 15.7178C73.897 15.2215 73.7257 14.8434 73.383 14.5834C73.0521 14.3116 72.5617 14.1757 71.9118 14.1757C71.3682 14.1757 70.8778 14.282 70.4405 14.4948C70.0033 14.6956 69.637 15.0029 69.3416 15.4165L67.2499 14.0693C67.7344 13.3485 68.4021 12.7872 69.2529 12.3854C70.1038 11.9718 71.0787 11.765 72.1776 11.765C73.0994 11.765 73.9029 11.9186 74.5883 12.2259C75.2855 12.5213 75.8232 12.9467 76.2013 13.5021C76.5913 14.0457 76.7863 14.6897 76.7863 15.4342C76.7863 16.1078 76.6445 16.74 76.3609 17.3308C76.0772 17.9217 75.5278 18.5952 74.7124 19.3515L71.8586 22.0458H77.1939ZM79.1587 11.9777H84.7954C86.1426 11.9777 87.3302 12.2377 88.3582 12.7577C89.3981 13.2658 90.2017 13.9866 90.7689 14.9202C91.3479 15.8537 91.6375 16.9409 91.6375 18.1817C91.6375 19.4224 91.3479 20.5096 90.7689 21.4431C90.2017 22.3767 89.3981 23.1034 88.3582 23.6234C87.3302 24.1315 86.1426 24.3856 84.7954 24.3856H79.1587V11.9777ZM84.6536 22.0281C85.8944 22.0281 86.8811 21.6854 87.6138 21C88.3582 20.3028 88.7305 19.3634 88.7305 18.1817C88.7305 17 88.3582 16.0664 87.6138 15.381C86.8811 14.6838 85.8944 14.3352 84.6536 14.3352H82.0302V22.0281H84.6536ZM98.1458 24.5274C97.1413 24.5274 96.2373 24.3206 95.4338 23.907C94.642 23.4816 94.0216 22.8966 93.5726 22.1522C93.1235 21.4077 92.899 20.5628 92.899 19.6174C92.899 18.6721 93.1235 17.8271 93.5726 17.0827C94.0216 16.3382 94.642 15.7592 95.4338 15.3456C96.2373 14.9202 97.1413 14.7075 98.1458 14.7075C99.1502 14.7075 100.048 14.9202 100.84 15.3456C101.632 15.7592 102.252 16.3382 102.701 17.0827C103.15 17.8271 103.375 18.6721 103.375 19.6174C103.375 20.5628 103.15 21.4077 102.701 22.1522C102.252 22.8966 101.632 23.4816 100.84 23.907C100.048 24.3206 99.1502 24.5274 98.1458 24.5274ZM98.1458 22.2585C98.8548 22.2585 99.4338 22.0222 99.8829 21.5495C100.344 21.065 100.574 20.421 100.574 19.6174C100.574 18.8139 100.344 18.1757 99.8829 17.7031C99.4338 17.2186 98.8548 16.9763 98.1458 16.9763C97.4367 16.9763 96.8518 17.2186 96.3909 17.7031C95.9301 18.1757 95.6996 18.8139 95.6996 19.6174C95.6996 20.421 95.9301 21.065 96.3909 21.5495C96.8518 22.0222 97.4367 22.2585 98.1458 22.2585ZM107.864 16.1078C108.195 15.6469 108.638 15.2983 109.194 15.062C109.761 14.8256 110.411 14.7075 111.143 14.7075V17.2599C110.836 17.2363 110.629 17.2245 110.523 17.2245C109.731 17.2245 109.111 17.449 108.662 17.898C108.213 18.3353 107.988 18.997 107.988 19.8833V24.3856H105.223V14.8493H107.864V16.1078Z" fill="#006A52"/>
</svg>
