<svg width="116" height="101" viewBox="0 0 116 101" fill="none" xmlns="http://www.w3.org/2000/svg">
<path d="M53.5017 42.4062H52.7486L40.2282 75.4453C40.1384 75.6819 40.1074 75.9367 40.1378 76.1879C40.1682 76.4391 40.2592 76.6792 40.4029 76.8874C40.5466 77.0957 40.7388 77.2659 40.9628 77.3835C41.1869 77.5011 41.4361 77.5625 41.6892 77.5625H53.5032" fill="#E36649"/>
<path d="M40.2188 51H28.5001C28.2929 51 28.0942 50.9177 27.9476 50.7712C27.8011 50.6247 27.7188 50.4259 27.7188 50.2188C27.7188 50.0116 27.8011 49.8128 27.9476 49.6663C28.0942 49.5198 28.2929 49.4375 28.5001 49.4375H40.2188C40.426 49.4375 40.6247 49.5198 40.7712 49.6663C40.9178 49.8128 41.0001 50.0116 41.0001 50.2188C41.0001 50.4259 40.9178 50.6247 40.7712 50.7712C40.6247 50.9177 40.426 51 40.2188 51ZM25.3751 51H23.8126C23.6054 51 23.4067 50.9177 23.2601 50.7712C23.1136 50.6247 23.0313 50.4259 23.0313 50.2188C23.0313 50.0116 23.1136 49.8128 23.2601 49.6663C23.4067 49.5198 23.6054 49.4375 23.8126 49.4375H25.3751C25.5823 49.4375 25.781 49.5198 25.9275 49.6663C26.074 49.8128 26.1563 50.0116 26.1563 50.2188C26.1563 50.4259 26.074 50.6247 25.9275 50.7712C25.781 50.9177 25.5823 51 25.3751 51ZM103.5 51H91.7813C91.5741 51 91.3754 50.9177 91.2289 50.7712C91.0824 50.6247 91.0001 50.4259 91.0001 50.2188C91.0001 50.0116 91.0824 49.8128 91.2289 49.6663C91.3754 49.5198 91.5741 49.4375 91.7813 49.4375H103.5C103.707 49.4375 103.906 49.5198 104.052 49.6663C104.199 49.8128 104.281 50.0116 104.281 50.2188C104.281 50.4259 104.199 50.6247 104.052 50.7712C103.906 50.9177 103.707 51 103.5 51ZM108.188 51H106.625C106.418 51 106.219 50.9177 106.073 50.7712C105.926 50.6247 105.844 50.4259 105.844 50.2188C105.844 50.0116 105.926 49.8128 106.073 49.6663C106.219 49.5198 106.418 49.4375 106.625 49.4375H108.188C108.395 49.4375 108.593 49.5198 108.74 49.6663C108.887 49.8128 108.969 50.0116 108.969 50.2188C108.969 50.4259 108.887 50.6247 108.74 50.7712C108.593 50.9177 108.395 51 108.188 51ZM26.311 73.6562C26.1389 73.6566 25.9715 73.6001 25.8348 73.4955C25.6981 73.3909 25.5998 73.2442 25.555 73.078C25.5103 72.9118 25.5218 72.7355 25.5875 72.5764C25.6533 72.4174 25.7698 72.2845 25.9188 72.1984L36.0673 66.3391C36.2466 66.2371 36.459 66.2102 36.6581 66.2643C36.8572 66.3183 37.0268 66.4489 37.13 66.6276C37.2331 66.8062 37.2614 67.0185 37.2087 67.2179C37.156 67.4174 37.0265 67.5878 36.8485 67.6922L26.7001 73.5516C26.5821 73.6207 26.4477 73.6569 26.311 73.6562ZM22.2501 76C22.078 76.0003 21.9106 75.9438 21.7739 75.8393C21.6372 75.7347 21.5388 75.5879 21.4941 75.4217C21.4494 75.2555 21.4608 75.0792 21.5266 74.9202C21.5924 74.7611 21.7088 74.6283 21.8579 74.5422L23.211 73.7609C23.2999 73.7096 23.3979 73.6763 23.4996 73.6629C23.6014 73.6496 23.7047 73.6563 23.8038 73.6829C23.9029 73.7094 23.9958 73.7552 24.0772 73.8177C24.1586 73.8802 24.2269 73.958 24.2782 74.0469C24.3295 74.1357 24.3628 74.2338 24.3762 74.3355C24.3896 74.4372 24.3828 74.5406 24.3562 74.6397C24.3297 74.7388 24.2839 74.8317 24.2214 74.9131C24.159 74.9945 24.0811 75.0628 23.9923 75.1141L22.6391 75.8953C22.5212 75.9645 22.3868 76.0006 22.2501 76ZM95.5423 34.2031C95.3702 34.2035 95.2028 34.147 95.066 34.0424C94.9294 33.9378 94.831 33.791 94.7863 33.6248C94.7416 33.4586 94.753 33.2823 94.8188 33.1233C94.8846 32.9642 95.001 32.8314 95.1501 32.7453L105.299 26.8859C105.387 26.8338 105.486 26.7998 105.588 26.7859C105.69 26.7719 105.794 26.7783 105.893 26.8046C105.993 26.8309 106.086 26.8767 106.168 26.9393C106.25 27.0019 106.319 27.08 106.37 27.1693C106.422 27.2585 106.455 27.357 106.468 27.4592C106.482 27.5614 106.475 27.6652 106.448 27.7646C106.421 27.864 106.374 27.9571 106.311 28.0386C106.248 28.12 106.169 28.1881 106.08 28.2391L95.9313 34.0984C95.8134 34.1676 95.679 34.2037 95.5423 34.2031ZM108.397 26.7812C108.225 26.7816 108.057 26.7251 107.921 26.6205C107.784 26.5159 107.686 26.3692 107.641 26.203C107.596 26.0368 107.608 25.8605 107.673 25.7014C107.739 25.5424 107.856 25.4095 108.005 25.3234L109.358 24.5422C109.537 24.4402 109.75 24.4133 109.949 24.4674C110.148 24.5214 110.317 24.652 110.421 24.8307C110.524 25.0094 110.552 25.2216 110.499 25.421C110.447 25.6205 110.317 25.791 110.139 25.8953L108.786 26.6766C108.668 26.7457 108.534 26.7819 108.397 26.7812ZM105.689 73.6562C105.552 73.6567 105.417 73.6206 105.299 73.5516L95.1501 67.6922C94.9721 67.5878 94.8426 67.4174 94.7899 67.2179C94.7372 67.0185 94.7655 66.8062 94.8686 66.6276C94.9718 66.4489 95.1414 66.3183 95.3405 66.2643C95.5396 66.2102 95.752 66.2371 95.9313 66.3391L106.08 72.1984C106.229 72.2844 106.345 72.4172 106.411 72.576C106.477 72.7349 106.488 72.9111 106.444 73.0772C106.399 73.2433 106.301 73.3901 106.165 73.4948C106.028 73.5995 105.861 73.6562 105.689 73.6562ZM109.75 76C109.613 76.0004 109.478 75.9643 109.359 75.8953L108.006 75.1141C107.828 75.0097 107.699 74.8392 107.646 74.6398C107.593 74.4403 107.622 74.2281 107.725 74.0495C107.828 73.8708 107.998 73.7402 108.197 73.6861C108.396 73.6321 108.608 73.659 108.788 73.7609L110.141 74.5422C110.29 74.6282 110.406 74.7609 110.472 74.9198C110.538 75.0787 110.549 75.2548 110.505 75.421C110.46 75.5871 110.362 75.7339 110.226 75.8385C110.089 75.9432 109.922 76 109.75 76ZM36.4579 34.2031C36.3207 34.2036 36.1858 34.1674 36.0673 34.0984L25.9188 28.2391C25.7408 28.1347 25.6114 27.9642 25.5586 27.7648C25.5059 27.5653 25.5342 27.3531 25.6374 27.1745C25.7405 26.9958 25.9101 26.8652 26.1092 26.8111C26.3083 26.7571 26.5207 26.784 26.7001 26.8859L36.8485 32.7453C36.9974 32.8313 37.1138 32.964 37.1796 33.1229C37.2454 33.2818 37.257 33.458 37.2125 33.6241C37.168 33.7902 37.0699 33.937 36.9335 34.0417C36.797 34.1464 36.6299 34.2031 36.4579 34.2031ZM23.6032 26.7812C23.466 26.7817 23.3312 26.7456 23.2126 26.6766L21.8594 25.8953C21.6815 25.791 21.552 25.6205 21.4993 25.421C21.4465 25.2216 21.4748 25.0094 21.578 24.8307C21.6811 24.652 21.8508 24.5214 22.0499 24.4674C22.249 24.4133 22.4613 24.4402 22.6407 24.5422L23.9938 25.3234C24.1427 25.4094 24.2591 25.5422 24.3249 25.701C24.3908 25.8599 24.4023 26.0361 24.3578 26.2022C24.3133 26.3683 24.2152 26.5151 24.0788 26.6198C23.9423 26.7245 23.7752 26.7812 23.6032 26.7812ZM80.0626 97.0938C79.8554 97.0938 79.6567 97.0114 79.5101 96.8649C79.3636 96.7184 79.2813 96.5197 79.2813 96.3125V93.1875C79.2813 92.9803 79.199 92.7816 79.0525 92.6351C78.906 92.4886 78.7073 92.4062 78.5001 92.4062H53.5001C53.2929 92.4062 53.0942 92.4886 52.9476 92.6351C52.8011 92.7816 52.7188 92.9803 52.7188 93.1875V96.3125C52.7188 96.5197 52.6365 96.7184 52.49 96.8649C52.3435 97.0114 52.1448 97.0938 51.9376 97.0938C51.7304 97.0938 51.5317 97.0114 51.3851 96.8649C51.2386 96.7184 51.1563 96.5197 51.1563 96.3125V93.1875C51.1563 91.8953 52.2079 90.8438 53.5001 90.8438H78.5001C79.7923 90.8438 80.8438 91.8953 80.8438 93.1875V96.3125C80.8438 96.5197 80.7615 96.7184 80.615 96.8649C80.4685 97.0114 80.2698 97.0938 80.0626 97.0938ZM108.188 100.219H23.8126C23.6054 100.219 23.4067 100.136 23.2601 99.9899C23.1136 99.8434 23.0313 99.6447 23.0313 99.4375C23.0313 99.2303 23.1136 99.0316 23.2601 98.8851C23.4067 98.7386 23.6054 98.6562 23.8126 98.6562H108.188C108.395 98.6562 108.593 98.7386 108.74 98.8851C108.887 99.0316 108.969 99.2303 108.969 99.4375C108.969 99.6447 108.887 99.8434 108.74 99.9899C108.593 100.136 108.395 100.219 108.188 100.219ZM66.0016 29.9062C60.4016 29.9062 55.8454 25.35 55.8454 19.75C55.8454 14.15 60.4016 9.59375 66.0016 9.59375C71.6016 9.59375 76.1579 14.15 76.1579 19.75C76.1579 25.35 71.6016 29.9062 66.0016 29.9062ZM66.0016 11.1562C61.2626 11.1562 57.4079 15.0109 57.4079 19.75C57.4079 24.4891 61.2626 28.3438 66.0016 28.3438C70.7407 28.3438 74.5954 24.4891 74.5954 19.75C74.5954 15.0109 70.7407 11.1562 66.0016 11.1562Z" fill="#263238"/>
<path d="M72.5029 14.3297L73.2014 13.7484C71.9676 12.2698 70.3084 11.2069 68.4494 10.7044C66.5903 10.2018 64.6216 10.284 62.8109 10.9397C61.0002 11.5954 59.4353 12.7928 58.3291 14.3691C57.2228 15.9454 56.6289 17.8242 56.6279 19.75H57.5123C62.9889 19.75 68.2936 17.8328 72.5029 14.3297Z" fill="#E36649"/>
<path d="M57.5127 20.5313H56.6283C56.4211 20.5313 56.2224 20.4489 56.0759 20.3024C55.9294 20.1559 55.8471 19.9572 55.8471 19.75C55.8471 14.15 60.4033 9.59375 66.0033 9.59375C69.0221 9.59375 71.8627 10.925 73.8018 13.2469C73.9343 13.406 73.9982 13.6113 73.9795 13.8176C73.9607 14.0238 73.8608 14.2142 73.7018 14.3469L73.0033 14.9281C68.6513 18.5453 63.1717 20.5273 57.5127 20.5313ZM57.4439 18.9688H57.5127C62.7955 18.9688 67.9424 17.1078 72.0033 13.7281L72.0721 13.6703C71.2755 12.8724 70.3292 12.2396 69.2875 11.8082C68.2458 11.3768 67.1292 11.1552 66.0018 11.1563C63.8586 11.1588 61.7935 11.9611 60.2107 13.4061C58.6279 14.851 57.6412 16.8347 57.4439 18.9688ZM72.5033 14.3297H72.5189H72.5033ZM65.9877 36.9375C65.8748 36.9375 65.7633 36.9131 65.6608 36.8659C65.5583 36.8187 65.4673 36.7498 65.3939 36.6641L60.708 31.1875C60.5867 31.0461 60.5202 30.8659 60.5205 30.6797L60.5189 27.8609C60.5189 27.6537 60.6012 27.455 60.7478 27.3085C60.8943 27.162 61.093 27.0797 61.3002 27.0797C61.5074 27.0797 61.7061 27.162 61.8526 27.3085C61.9991 27.455 62.0814 27.6537 62.0814 27.8609L62.083 30.3906L65.9877 34.9547L69.8955 30.3922L69.8939 27.8719C69.8939 27.6647 69.9763 27.466 70.1228 27.3194C70.2693 27.1729 70.468 27.0906 70.6752 27.0906C70.8824 27.0906 71.0811 27.1729 71.2276 27.3194C71.3741 27.466 71.4564 27.6647 71.4564 27.8719L71.458 30.6813C71.458 30.8688 71.3924 31.0484 71.2705 31.1906L66.5814 36.6672C66.5075 36.752 66.4162 36.82 66.3138 36.8666C66.2114 36.9132 66.1002 36.9374 65.9877 36.9375ZM73.8143 92.4063H70.533C69.3299 92.4063 68.3283 91.5047 68.2018 90.3078L66.0002 71.7109L63.7986 90.3172C63.7375 90.8919 63.4656 91.4236 63.0353 91.8095C62.605 92.1953 62.0469 92.4079 61.4689 92.4063H58.1877C56.8955 92.4063 55.8439 91.3547 55.8439 90.0625V57.25C55.8439 57.0428 55.9262 56.8441 56.0728 56.6976C56.2193 56.5511 56.418 56.4688 56.6252 56.4688H75.3752C75.5824 56.4688 75.7811 56.5511 75.9276 56.6976C76.0741 56.8441 76.1564 57.0428 76.1564 57.25V90.0625C76.1564 90.6838 75.9097 91.2797 75.4705 91.7192C75.0313 92.1587 74.4356 92.4058 73.8143 92.4063ZM66.0018 64.2813C66.1931 64.2811 66.3779 64.3511 66.521 64.4781C66.6642 64.6051 66.7557 64.7803 66.7783 64.9703L69.7564 90.1328C69.7744 90.3268 69.8641 90.5071 70.008 90.6383C70.152 90.7695 70.3398 90.8422 70.5346 90.8422H73.8158C74.023 90.8422 74.2217 90.7599 74.3682 90.6134C74.5148 90.4669 74.5971 90.2681 74.5971 90.0609V58.0313H57.4096V90.0625C57.4096 90.2697 57.4919 90.4684 57.6384 90.6149C57.7849 90.7614 57.9836 90.8438 58.1908 90.8438H61.4721C61.8736 90.8438 62.2064 90.5438 62.2486 90.1453L65.2268 64.9719C65.2489 64.7818 65.3401 64.6065 65.483 64.4792C65.6258 64.3519 65.8104 64.2815 66.0018 64.2813ZM95.1924 19.9078C95.0592 19.9081 94.9282 19.8743 94.8118 19.8096C94.6954 19.7449 94.5975 19.6514 94.5275 19.5381C94.4575 19.4249 94.4176 19.2955 94.4117 19.1625C94.4059 19.0295 94.4342 18.8971 94.4939 18.7781C95.0705 17.6219 94.5986 16.2109 93.4424 15.6344C92.2861 15.0578 90.8752 15.5297 90.2986 16.6859C90.2529 16.7777 90.1895 16.8595 90.1121 16.9267C90.0348 16.9939 89.9449 17.0453 89.8477 17.0778C89.7505 17.1103 89.6478 17.1233 89.5456 17.1161C89.4433 17.1089 89.3435 17.0817 89.2518 17.0359C89.16 16.9902 89.0782 16.9268 89.011 16.8494C88.9438 16.7721 88.8924 16.6822 88.8599 16.585C88.8274 16.4878 88.8144 16.3851 88.8216 16.2829C88.8288 16.1806 88.856 16.0808 88.9018 15.9891C89.3646 15.0624 90.1763 14.3573 91.1586 14.0286C92.1409 13.6999 93.2135 13.7745 94.1408 14.2359C95.0669 14.6994 95.7715 15.5111 96.1001 16.4932C96.4287 17.4752 96.3546 18.5475 95.8939 19.475C95.8287 19.6051 95.7285 19.7146 95.6046 19.791C95.4807 19.8674 95.338 19.9079 95.1924 19.9078ZM36.8096 19.9078C36.6642 19.9078 36.5217 19.8673 36.3981 19.7908C36.2745 19.7144 36.1746 19.605 36.1096 19.475C35.6485 18.5476 35.5742 17.4751 35.9028 16.493C36.2315 15.5108 36.9363 14.6991 37.8627 14.2359C38.79 13.7745 39.8626 13.6999 40.8449 14.0286C41.8272 14.3573 42.6389 15.0624 43.1017 15.9891C43.1942 16.1743 43.2092 16.3887 43.1436 16.585C43.0779 16.7813 42.937 16.9435 42.7517 17.0359C42.5665 17.1283 42.3522 17.1434 42.1558 17.0778C41.9595 17.0121 41.7973 16.8712 41.7049 16.6859C41.4971 16.2723 41.1716 15.9293 40.7694 15.7002C40.3671 15.471 39.9061 15.366 39.4443 15.3982C38.9825 15.4305 38.5406 15.5985 38.1741 15.8813C37.8076 16.1641 37.5329 16.549 37.3846 16.9875C37.1861 17.5813 37.2299 18.2172 37.5096 18.7766C37.5698 18.8957 37.5984 19.0284 37.5926 19.1618C37.5868 19.2952 37.5469 19.4249 37.4767 19.5384C37.4064 19.6519 37.3082 19.7455 37.1914 19.8102C37.0745 19.8749 36.9431 19.9085 36.8096 19.9078Z" fill="#263238"/>
<path d="M75.375 58.0313H56.6265C56.4193 58.0313 56.2206 57.949 56.0741 57.8025C55.9276 57.6559 55.8453 57.4572 55.8453 57.25V40.0625H51.7109C50.1139 40.0679 48.5474 39.6257 47.1889 38.7862C45.8305 37.9466 44.7344 36.7433 44.025 35.3125L37.5078 22.2781C37.4619 22.1863 37.4345 22.0864 37.4272 21.984C37.42 21.8816 37.433 21.7788 37.4655 21.6814C37.498 21.584 37.5494 21.494 37.6167 21.4165C37.684 21.339 37.7659 21.2755 37.8578 21.2297L43.4484 18.4344C43.5402 18.3885 43.6402 18.3611 43.7426 18.3539C43.8449 18.3466 43.9478 18.3596 44.0451 18.3921C44.1425 18.4246 44.2325 18.476 44.31 18.5433C44.3875 18.6106 44.451 18.6925 44.4968 18.7844L50.3656 30.5235C50.6233 31.0437 51.0216 31.4812 51.5155 31.7864C52.0093 32.0916 52.5788 32.2522 53.1593 32.25L56.4406 32.2485L60.9578 29.9672C61.1142 29.8888 61.2924 29.8649 61.464 29.8995C61.6356 29.934 61.7907 30.025 61.9046 30.1578L65.9906 34.9563L70.1078 30.1844C70.2212 30.0528 70.3753 29.9627 70.5456 29.9285C70.716 29.8942 70.8929 29.9178 71.0484 29.9953L75.5593 32.25H78.8421C80.0343 32.25 81.1046 31.5891 81.6375 30.5235L87.5062 18.7844C87.5994 18.5995 87.7619 18.4589 87.9583 18.3934C88.1547 18.3278 88.3691 18.3425 88.5546 18.4344L94.1453 21.2297C94.2373 21.2754 94.3193 21.3388 94.3867 21.4163C94.4541 21.4938 94.5055 21.5839 94.5379 21.6814C94.5703 21.7788 94.583 21.8817 94.5754 21.9842C94.5679 22.0866 94.5401 22.1865 94.4937 22.2781L87.9765 35.3125C87.2671 36.7433 86.171 37.9466 84.8125 38.7862C83.4541 39.6257 81.8875 40.0679 80.2906 40.0625H76.1562V57.25C76.1562 57.4572 76.0739 57.6559 75.9274 57.8025C75.7809 57.949 75.5822 58.0313 75.375 58.0313ZM57.4078 56.4688H74.5937V39.2813C74.5937 39.0741 74.676 38.8754 74.8225 38.7288C74.969 38.5823 75.1678 38.5 75.375 38.5H80.2906C81.5971 38.5047 82.8787 38.1431 83.9901 37.4562C85.1014 36.7694 85.998 35.7847 86.5781 34.6141L92.7468 22.2781L88.5531 20.1813L83.0328 31.2203C82.6469 32.0014 82.0496 32.6584 81.3088 33.1167C80.5679 33.5749 79.7133 33.816 78.8421 33.8125H75.375C75.2534 33.8126 75.1336 33.7842 75.025 33.7297L70.8937 31.6641L66.5781 36.6656C66.5053 36.7512 66.4148 36.8199 66.3128 36.8668C66.2108 36.9138 66.0998 36.9379 65.9875 36.9375C65.8062 36.986 65.5406 36.8375 65.3921 36.6625L61.114 31.6391L56.9796 33.7266C56.8706 33.7816 56.7502 33.8105 56.6281 33.811L53.1609 33.8125C52.2896 33.8159 51.4348 33.5749 50.6935 33.117C49.9522 32.6591 49.3542 32.0025 48.9671 31.2219L43.4468 20.1828L39.2531 22.2797L45.4203 34.6156C46.0018 35.7857 46.8992 36.7696 48.0109 37.4561C49.1226 38.1425 50.4043 38.5042 51.7109 38.5H56.6265C56.8337 38.5 57.0324 38.5823 57.1789 38.7288C57.3255 38.8754 57.4078 39.0741 57.4078 39.2813V56.4688Z" fill="#263238"/>
<path d="M66.0029 36.1562L56.6279 33.0297L61.3014 30.6797L66.0029 36.1562Z" fill="#E36649"/>
<path d="M66.0033 36.9375C65.9193 36.9378 65.8359 36.9241 65.7565 36.8968L56.3799 33.7703C56.233 33.722 56.1037 33.631 56.0086 33.5091C55.9135 33.3871 55.8568 33.2396 55.8457 33.0853C55.8347 32.9311 55.8698 32.777 55.9465 32.6427C56.0233 32.5084 56.1382 32.4 56.2768 32.3312L60.9518 29.9812C61.1077 29.9031 61.2852 29.8793 61.4561 29.9136C61.6271 29.9478 61.7817 30.0382 61.8955 30.1703L66.5971 35.6468C66.6946 35.7603 66.7576 35.8994 66.7784 36.0476C66.7992 36.1958 66.777 36.3468 66.7145 36.4827C66.6519 36.6187 66.5517 36.7338 66.4256 36.8144C66.2995 36.895 66.153 36.9377 66.0033 36.9375ZM58.658 32.8828L63.5705 34.5203L61.108 31.6515L58.658 32.8828Z" fill="#263238"/>
<path d="M68.3467 36.1L75.3779 33.0297L70.6732 30.6875L68.3467 36.1Z" fill="#E36649"/>
<path d="M68.3454 36.8813C68.2158 36.8819 68.088 36.8502 67.9736 36.7889C67.8593 36.7277 67.762 36.6389 67.6907 36.5306C67.6193 36.4224 67.5761 36.298 67.5649 36.1688C67.5537 36.0396 67.575 35.9096 67.6267 35.7907L69.9548 30.3782C69.9972 30.2807 70.0589 30.1928 70.1362 30.1199C70.2135 30.047 70.3049 29.9906 70.4047 29.954C70.5045 29.9175 70.6106 29.9016 70.7168 29.9074C70.8229 29.9132 70.9267 29.9404 71.022 29.9875L75.7267 32.3297C75.8594 32.3962 75.9704 32.499 76.0468 32.6262C76.1232 32.7535 76.1617 32.8998 76.1579 33.0482C76.1542 33.1965 76.1082 33.3407 76.0255 33.4639C75.9427 33.5871 75.8266 33.6842 75.6907 33.7438L68.6579 36.8141C68.5598 36.8585 68.4532 36.8815 68.3454 36.8813ZM71.0658 31.7547L69.8439 34.5938L73.5314 32.9844L71.0658 31.7547Z" fill="#263238"/>
<path d="M66.0029 36.1L64.3264 35.5515L63.6436 47.825L66.0014 50.95L68.3311 47.825L67.6498 35.5609L66.0029 36.1Z" fill="#016A37"/>
<path d="M66.0018 51.7313C65.8809 51.7312 65.7616 51.7031 65.6535 51.6492C65.5453 51.5952 65.4511 51.5169 65.3783 51.4203L63.0205 48.2953C62.9093 48.1479 62.8539 47.9657 62.8643 47.7813L63.5471 35.5078C63.5538 35.3883 63.5879 35.2719 63.6468 35.1676C63.7057 35.0633 63.7878 34.974 63.8867 34.9065C63.9856 34.8389 64.0987 34.7951 64.2173 34.7783C64.3359 34.7614 64.4567 34.7721 64.5705 34.8094L66.0033 35.2781L67.4064 34.8188C67.5202 34.7818 67.641 34.7714 67.7594 34.7883C67.8779 34.8053 67.9909 34.8492 68.0897 34.9167C68.1885 34.9841 68.2706 35.0733 68.3295 35.1774C68.3885 35.2815 68.4228 35.3978 68.4299 35.5172L69.1111 47.7813C69.1219 47.9643 69.0676 48.1453 68.958 48.2922L66.6283 51.4172C66.556 51.5144 66.4619 51.5934 66.3537 51.6479C66.2455 51.7024 66.1261 51.731 66.0049 51.7313H66.0018ZM64.4393 47.5828L65.9971 49.6469L67.5346 47.5844L66.9252 36.6188L66.2439 36.8422C66.0855 36.8938 65.9149 36.8938 65.7564 36.8422L65.0455 36.6094L64.4393 47.5828ZM53.5018 78.3438H41.6877C41.3083 78.3437 40.9346 78.2515 40.5987 78.0751C40.2629 77.8987 39.9748 77.6434 39.7593 77.3311C39.5439 77.0188 39.4075 76.6589 39.3618 76.2823C39.3161 75.9056 39.3625 75.5235 39.4971 75.1688L52.0174 42.1297C52.0913 41.9362 52.2388 41.7798 52.4276 41.6946C52.6164 41.6094 52.8312 41.6024 53.0252 41.675C53.2187 41.7489 53.3751 41.8964 53.4603 42.0852C53.5455 42.274 53.5525 42.4889 53.4799 42.6828L40.9596 75.7219C40.8658 75.9657 40.8987 76.2282 41.0471 76.4422C41.1955 76.6563 41.4299 76.7797 41.6908 76.7797H53.5049C53.7123 76.7802 53.911 76.8629 54.0574 77.0099C54.2038 77.1568 54.2858 77.3559 54.2854 77.5633C54.2849 77.7707 54.2022 77.9695 54.0552 78.1159C53.9082 78.2622 53.7092 78.3442 53.5018 78.3438Z" fill="#263238"/>
<path d="M78.5016 77.5625H90.2875C90.5403 77.5624 90.7894 77.501 91.0133 77.3835C91.2371 77.266 91.4292 77.0959 91.5728 76.8879C91.7165 76.6798 91.8075 76.44 91.8381 76.189C91.8687 75.938 91.8379 75.6833 91.7484 75.4469L79.2281 42.4062H78.5" fill="#E36649"/>
<path d="M90.2873 78.3437H78.5029C78.2957 78.3437 78.097 78.2614 77.9505 78.1149C77.804 77.9684 77.7217 77.7697 77.7217 77.5625C77.7217 77.3553 77.804 77.1566 77.9505 77.01C78.097 76.8635 78.2957 76.7812 78.5029 76.7812H90.2873C90.5482 76.7812 90.7826 76.6578 90.9311 76.4437C91.0795 76.2297 91.1107 75.9656 91.0186 75.7234L78.4967 42.6843C78.4604 42.5883 78.4433 42.4861 78.4465 42.3835C78.4497 42.2808 78.4731 42.1799 78.5153 42.0863C78.5575 41.9927 78.6178 41.9083 78.6926 41.838C78.7674 41.7677 78.8553 41.7128 78.9514 41.6765C79.0474 41.6402 79.1496 41.6232 79.2523 41.6264C79.3549 41.6295 79.4559 41.6529 79.5494 41.6951C79.643 41.7374 79.7274 41.7976 79.7977 41.8724C79.868 41.9473 79.9229 42.0352 79.9592 42.1312L92.4795 75.1703C92.613 75.5251 92.6586 75.9069 92.6123 76.2832C92.5661 76.6594 92.4294 77.0188 92.2139 77.3307C91.9985 77.6426 91.7107 77.8977 91.3752 78.0741C91.0396 78.2505 90.6664 78.343 90.2873 78.3437Z" fill="#263238"/>
<path d="M71.4717 11.9375H60.5342V5.6875L62.8779 8.8125L66.0029 5.6875L69.1279 8.8125L71.4717 5.6875V11.9375Z" fill="#E36649"/>
<path d="M71.4702 12.7188H60.5327C60.3255 12.7188 60.1268 12.6364 59.9803 12.4899C59.8338 12.3434 59.7515 12.1447 59.7515 11.9375V5.6875C59.7515 5.52353 59.8031 5.36372 59.8989 5.2307C59.9948 5.09768 60.1301 4.99819 60.2857 4.94634C60.4412 4.89449 60.6091 4.8929 60.7657 4.94179C60.9222 4.99068 61.0593 5.08757 61.1577 5.21875L62.9608 7.62344L65.4483 5.13594C65.5948 4.98948 65.7935 4.9072 66.0007 4.9072C66.2078 4.9072 66.4065 4.98948 66.553 5.13594L69.0405 7.62344L70.8468 5.21875C70.9454 5.08822 71.0824 4.99192 71.2386 4.94343C71.3949 4.89495 71.5624 4.89672 71.7175 4.9485C71.8727 5.00027 72.0077 5.09945 72.1035 5.23203C72.1993 5.36462 72.251 5.52393 72.2515 5.6875V11.9375C72.2515 12.1447 72.1692 12.3434 72.0226 12.4899C71.8761 12.6364 71.6774 12.7188 71.4702 12.7188ZM61.314 11.1562H70.689V8.03125L69.7515 9.28125C69.6839 9.37005 69.5982 9.44345 69.5 9.49655C69.4019 9.54965 69.2935 9.58125 69.1822 9.58923C69.0709 9.59721 68.9592 9.5814 68.8545 9.54284C68.7498 9.50429 68.6545 9.44388 68.5749 9.36563L66.003 6.79375L63.4312 9.36563C63.3523 9.44531 63.2572 9.50699 63.1523 9.54643C63.0474 9.58588 62.9352 9.60215 62.8235 9.59414C62.7117 9.58612 62.603 9.55401 62.5048 9.5C62.4066 9.44599 62.3212 9.37136 62.2546 9.28125L61.3171 8.03125V11.1562H61.314Z" fill="#263238"/>
<path d="M94.9062 6.46875H88.6562C88.449 6.46875 88.2503 6.38644 88.1038 6.23993C87.9573 6.09341 87.875 5.8947 87.875 5.6875C87.875 5.4803 87.9573 5.28159 88.1038 5.13507C88.2503 4.98856 88.449 4.90625 88.6562 4.90625H94.9062C95.1135 4.90625 95.3122 4.98856 95.4587 5.13507C95.6052 5.28159 95.6875 5.4803 95.6875 5.6875C95.6875 5.8947 95.6052 6.09341 95.4587 6.23993C95.3122 6.38644 95.1135 6.46875 94.9062 6.46875Z" fill="#263238"/>
<path d="M91.7812 9.59375C91.574 9.59375 91.3753 9.51144 91.2288 9.36493C91.0823 9.21841 91 9.0197 91 8.8125V2.5625C91 2.3553 91.0823 2.15659 91.2288 2.01007C91.3753 1.86356 91.574 1.78125 91.7812 1.78125C91.9885 1.78125 92.1872 1.86356 92.3337 2.01007C92.4802 2.15659 92.5625 2.3553 92.5625 2.5625V8.8125C92.5625 9.0197 92.4802 9.21841 92.3337 9.36493C92.1872 9.51144 91.9885 9.59375 91.7812 9.59375Z" fill="#263238"/>
<path d="M106.625 13.5H100.375C100.168 13.5 99.9691 13.4177 99.8226 13.2712C99.6761 13.1247 99.5938 12.926 99.5938 12.7188C99.5938 12.5115 99.6761 12.3128 99.8226 12.1663C99.9691 12.0198 100.168 11.9375 100.375 11.9375H106.625C106.832 11.9375 107.031 12.0198 107.177 12.1663C107.324 12.3128 107.406 12.5115 107.406 12.7188C107.406 12.926 107.324 13.1247 107.177 13.2712C107.031 13.4177 106.832 13.5 106.625 13.5Z" fill="#263238"/>
<path d="M103.5 16.625C103.293 16.625 103.094 16.5427 102.948 16.3962C102.801 16.2497 102.719 16.051 102.719 15.8438V9.59375C102.719 9.38655 102.801 9.18784 102.948 9.04132C103.094 8.89481 103.293 8.8125 103.5 8.8125C103.707 8.8125 103.906 8.89481 104.052 9.04132C104.199 9.18784 104.281 9.38655 104.281 9.59375V15.8438C104.281 16.051 104.199 16.2497 104.052 16.3962C103.906 16.5427 103.707 16.625 103.5 16.625Z" fill="#263238"/>
</svg>
