<svg width="123" height="37" viewBox="0 0 123 37" fill="none" xmlns="http://www.w3.org/2000/svg">
<path d="M117.981 36.5H5.01852C2.48815 36.5 0.5 34.4469 0.5 32.0366V5.25614C0.5 2.75663 2.57852 0.792725 5.01852 0.792725H117.981C120.512 0.792725 122.5 2.8459 122.5 5.25614V32.0366C122.5 34.4469 120.512 36.5 117.981 36.5Z" fill="black"/>
<path d="M62.0423 20.2532C59.8734 20.2532 58.1563 21.8601 58.1563 24.0918C58.1563 26.2342 59.8734 27.9303 62.0423 27.9303C64.2112 27.9303 65.9282 26.3235 65.9282 24.0918C65.9282 21.7708 64.2112 20.2532 62.0423 20.2532ZM62.0423 26.3235C60.8675 26.3235 59.8734 25.3415 59.8734 24.0025C59.8734 22.6635 60.8675 21.6815 62.0423 21.6815C63.2171 21.6815 64.2112 22.5742 64.2112 24.0025C64.2112 25.3415 63.2171 26.3235 62.0423 26.3235ZM53.6378 20.2532C51.4689 20.2532 49.7519 21.8601 49.7519 24.0918C49.7519 26.2342 51.4689 27.9303 53.6378 27.9303C55.8067 27.9303 57.5238 26.3235 57.5238 24.0918C57.5238 21.7708 55.8067 20.2532 53.6378 20.2532ZM53.6378 26.3235C52.463 26.3235 51.4689 25.3415 51.4689 24.0025C51.4689 22.6635 52.463 21.6815 53.6378 21.6815C54.8126 21.6815 55.8067 22.5742 55.8067 24.0025C55.8067 25.3415 54.8126 26.3235 53.6378 26.3235ZM43.6067 21.4137V23.0205H47.4926C47.4023 23.9132 47.0408 24.6274 46.5889 25.0737C46.0467 25.6093 45.143 26.2342 43.6067 26.2342C41.1667 26.2342 39.3593 24.3596 39.3593 21.9493C39.3593 19.5391 41.2571 17.6644 43.6067 17.6644C44.8719 17.6644 45.866 18.2001 46.5889 18.8249L47.7638 17.6644C46.7697 16.7718 45.5045 16.0576 43.6971 16.0576C40.4438 16.0576 37.6423 18.7357 37.6423 21.9493C37.6423 25.163 40.4438 27.841 43.6971 27.841C45.5045 27.841 46.7697 27.3054 47.8541 26.1449C48.9386 25.0737 49.3001 23.5562 49.3001 22.3957C49.3001 22.0386 49.3001 21.6815 49.2097 21.4137H43.6067ZM84.6349 22.6635C84.2734 21.7708 83.3697 20.2532 81.3815 20.2532C79.3934 20.2532 77.7667 21.7708 77.7667 24.0918C77.7667 26.2342 79.3934 27.9303 81.5623 27.9303C83.2793 27.9303 84.3638 26.8591 84.7252 26.2342L83.4601 25.3415C83.0082 25.9664 82.466 26.4127 81.5623 26.4127C80.6586 26.4127 80.1163 26.0557 79.6645 25.2523L84.8156 23.1098L84.6349 22.6635ZM79.3934 23.9132C79.3934 22.4849 80.5682 21.6815 81.3815 21.6815C82.0141 21.6815 82.6467 22.0386 82.8275 22.4849L79.3934 23.9132ZM75.146 27.5732H76.863V16.4147H75.146V27.5732ZM72.4349 21.0566C71.983 20.6103 71.2601 20.164 70.3563 20.164C68.4586 20.164 66.6512 21.8601 66.6512 24.0025C66.6512 26.1449 68.3682 27.7518 70.3563 27.7518C71.2601 27.7518 71.983 27.3054 72.3445 26.8591H72.4349V27.3947C72.4349 28.823 71.6215 29.6264 70.3563 29.6264C69.3623 29.6264 68.6393 28.9123 68.4586 28.2874L67.0126 28.9123C67.4645 29.8942 68.5489 31.144 70.4467 31.144C72.4349 31.144 74.0615 29.9835 74.0615 27.2162V20.4318H72.4349V21.0566ZM70.4467 26.3235C69.2719 26.3235 68.2778 25.3415 68.2778 24.0025C68.2778 22.6635 69.2719 21.6815 70.4467 21.6815C71.6215 21.6815 72.5252 22.6635 72.5252 24.0025C72.5252 25.3415 71.6215 26.3235 70.4467 26.3235ZM92.4971 16.4147H88.4304V27.5732H90.1475V23.3776H92.4971C94.3949 23.3776 96.2023 22.0386 96.2023 19.8962C96.2023 17.7537 94.3949 16.4147 92.4971 16.4147ZM92.5875 21.7708H90.1475V17.9323H92.5875C93.8526 17.9323 94.5756 19.0035 94.5756 19.8069C94.4852 20.7888 93.7623 21.7708 92.5875 21.7708ZM102.98 20.164C101.715 20.164 100.45 20.6996 99.9978 21.8601L101.534 22.4849C101.896 21.8601 102.438 21.6815 103.07 21.6815C103.974 21.6815 104.787 22.2171 104.878 23.1098V23.1991C104.607 23.0205 103.884 22.7527 103.161 22.7527C101.534 22.7527 99.9075 23.6454 99.9075 25.2523C99.9075 26.7698 101.263 27.7518 102.709 27.7518C103.884 27.7518 104.426 27.2162 104.878 26.6805H104.968V27.5732H106.595V23.2883C106.414 21.3244 104.878 20.164 102.98 20.164ZM102.799 26.3235C102.257 26.3235 101.444 26.0557 101.444 25.3415C101.444 24.4488 102.438 24.181 103.251 24.181C103.974 24.181 104.336 24.3596 104.787 24.5381C104.607 25.6093 103.703 26.3235 102.799 26.3235ZM112.288 20.4318L110.39 25.2523H110.3L108.312 20.4318H106.504L109.487 27.2162L107.77 30.9654H109.487L114.096 20.4318H112.288ZM97.106 27.5732H98.823V16.4147H97.106V27.5732Z" fill="white"/>
<path d="M9.89866 7.48785C9.62755 7.75566 9.44681 8.202 9.44681 8.73761V28.4659C9.44681 29.0015 9.62755 29.4479 9.89866 29.7157L9.98903 29.8049L21.195 18.7357V18.6464V18.5571L9.89866 7.48785Z" fill="url(#paint0_linear_1598_105751)"/>
<path d="M24.8997 22.485L21.1945 18.825V18.6464V18.5572L24.8997 14.8972L24.9901 14.9864L29.4182 17.4859C30.6834 18.2001 30.6834 19.3606 29.4182 20.0747L24.8997 22.485Z" fill="url(#paint1_linear_1598_105751)"/>
<path d="M24.9902 22.3957L21.1946 18.6464L9.89832 29.805C10.3502 30.2513 10.9828 30.2513 11.7961 29.8942L24.9902 22.3957Z" fill="url(#paint2_linear_1598_105751)"/>
<path d="M24.9902 14.8972L11.7961 7.48791C10.9828 7.04156 10.3502 7.13083 9.89835 7.57717L21.1946 18.6464L24.9902 14.8972Z" fill="url(#paint3_linear_1598_105751)"/>
<path opacity="0.2" d="M24.9002 22.3065L11.7965 29.6265C11.0735 30.0728 10.4409 29.9835 9.98905 29.6265L9.89868 29.7157L9.98905 29.805C10.4409 30.1621 11.0735 30.2513 11.7965 29.805L24.9002 22.3065Z" fill="black"/>
<path opacity="0.12" d="M9.89871 29.6265C9.6276 29.3587 9.53723 28.9123 9.53723 28.3767V28.466C9.53723 29.0016 9.71797 29.4479 9.98908 29.7157V29.6265H9.89871Z" fill="black"/>
<path opacity="0.12" d="M29.4185 19.8069L24.9 22.3064L24.9904 22.3957L29.4185 19.8962C30.0511 19.5391 30.3222 19.0928 30.3222 18.6464C30.3222 19.0928 29.9608 19.4498 29.4185 19.8069Z" fill="black"/>
<path opacity="0.25" d="M11.7965 7.57716L29.4187 17.4859C29.961 17.843 30.3224 18.2001 30.3224 18.6464C30.3224 18.2001 30.0513 17.7537 29.4187 17.3967L11.7965 7.48789C10.5313 6.77374 9.53726 7.39862 9.53726 8.82691V8.91618C9.53726 7.48789 10.5313 6.86301 11.7965 7.57716Z" fill="white"/>
<path d="M37.823 12.3975V7.04144H39.4497C40.263 7.04144 40.986 7.30925 41.4378 7.75559C41.98 8.2912 42.1608 8.91608 42.1608 9.71949C42.1608 10.5229 41.8897 11.1478 41.4378 11.6834C40.986 12.1297 40.263 12.3975 39.4497 12.3975H37.823ZM38.4556 11.7727H39.4497C40.0823 11.7727 40.5341 11.5941 40.8956 11.2371C41.2571 10.88 41.4378 10.3444 41.4378 9.71949C41.4378 9.09461 41.2571 8.559 40.8956 8.20193C40.5341 7.84486 39.9919 7.66632 39.4497 7.66632H38.4556V11.7727Z" fill="white" stroke="white" stroke-width="0.180741" stroke-miterlimit="10"/>
<path d="M43.1549 12.3975V7.04144H43.8779V12.3975H43.1549Z" fill="white" stroke="white" stroke-width="0.180741" stroke-miterlimit="10"/>
<path d="M46.6791 12.4868C46.3176 12.4868 45.8658 12.3976 45.5043 12.1297C45.1428 11.8619 44.8717 11.5049 44.7813 11.0585L45.4139 10.7907C45.5043 11.0585 45.685 11.3263 45.8658 11.5049C46.1369 11.6834 46.408 11.7727 46.6791 11.7727C46.9502 11.7727 47.2213 11.6834 47.4925 11.5049C47.6732 11.3263 47.8539 11.1478 47.8539 10.88C47.8539 10.6122 47.7636 10.3444 47.4925 10.1658C47.3117 9.98731 46.9502 9.80877 46.4984 9.7195C46.0465 9.54096 45.685 9.36243 45.4139 9.18389C45.1428 8.91609 45.0525 8.64828 45.0525 8.29121C45.0525 7.93413 45.2332 7.57706 45.5043 7.30926C45.7754 7.04145 46.2273 6.86292 46.6791 6.86292C47.131 6.86292 47.4925 6.95218 47.7636 7.21999C48.0347 7.48779 48.2154 7.66633 48.3058 7.93414L47.6732 8.20194C47.5828 8.0234 47.4925 7.84487 47.3117 7.7556C47.131 7.57706 46.8599 7.57706 46.5887 7.57706C46.3176 7.57706 46.1369 7.66633 45.8658 7.7556C45.7754 7.93413 45.685 8.11267 45.685 8.38048C45.685 8.55901 45.7754 8.73755 45.9562 8.91609C46.1369 9.09462 46.408 9.18389 46.7695 9.27316C47.0406 9.36243 47.2213 9.4517 47.4021 9.54096C47.5828 9.63023 47.7636 9.7195 47.9443 9.89804C48.125 9.98731 48.3058 10.1658 48.3962 10.4336C48.4865 10.6122 48.5769 10.88 48.5769 11.1478C48.5769 11.4156 48.4865 11.6834 48.3962 11.8619C48.3058 12.0405 48.125 12.219 47.9443 12.3083C47.6732 12.3083 47.4925 12.3975 47.3117 12.3975C47.0406 12.4868 46.8599 12.4868 46.6791 12.4868Z" fill="white" stroke="white" stroke-width="0.180741" stroke-miterlimit="10"/>
<path d="M50.2038 12.3975H49.4808V7.04144H51.2882C51.7401 7.04144 52.1015 7.21998 52.463 7.48778C52.8245 7.75559 53.0053 8.20193 53.0053 8.64827C53.0053 9.09461 52.8245 9.45169 52.463 9.80876C52.1015 10.0766 51.7401 10.2551 51.2882 10.2551H50.2038V12.3975ZM50.2038 9.54095H51.3786C51.6497 9.54095 51.9208 9.45169 52.1015 9.27315C52.2823 9.09461 52.3727 8.82681 52.3727 8.64827C52.3727 8.38047 52.2823 8.20193 52.1015 8.02339C51.9208 7.84486 51.6497 7.75559 51.3786 7.75559H50.2038V9.54095Z" fill="white" stroke="white" stroke-width="0.180741" stroke-miterlimit="10"/>
<path d="M58.337 11.6834C57.7948 12.219 57.1622 12.4868 56.3489 12.4868C55.5355 12.4868 54.903 12.219 54.3607 11.6834C53.8185 11.1478 53.5474 10.5229 53.5474 9.71953C53.5474 8.91611 53.8185 8.29123 54.3607 7.75562C54.903 7.22001 55.5355 6.95221 56.3489 6.95221C57.1622 6.95221 57.7948 7.22001 58.337 7.75562C58.8792 8.29123 59.1504 8.91611 59.1504 9.71953C59.1504 10.5229 58.8792 11.1478 58.337 11.6834ZM54.9029 11.2371C55.2644 11.5942 55.8067 11.862 56.3489 11.862C56.8911 11.862 57.4333 11.6834 57.7948 11.2371C58.1563 10.88 58.4274 10.3444 58.4274 9.71953C58.4274 9.09465 58.2467 8.55904 57.7948 8.20197C57.4333 7.84489 56.8911 7.57709 56.3489 7.57709C55.8067 7.57709 55.2644 7.75562 54.9029 8.20197C54.5415 8.55904 54.2704 9.09465 54.2704 9.71953C54.2704 10.3444 54.4511 10.88 54.9029 11.2371Z" fill="white" stroke="white" stroke-width="0.180741" stroke-miterlimit="10"/>
<path d="M60.0544 12.3975V7.04144H60.8677L63.4884 11.2371V10.1658V7.04144H64.2114V12.3975H63.4884L60.6869 8.02339V9.09461V12.3975H60.0544Z" fill="white" stroke="white" stroke-width="0.180741" stroke-miterlimit="10"/>
<path d="M65.4765 12.3975V7.04144H66.1995V12.3975H65.4765Z" fill="white" stroke="white" stroke-width="0.180741" stroke-miterlimit="10"/>
<path d="M67.4643 12.3975V7.04144H69.4525C69.9043 7.04144 70.2658 7.21998 70.5369 7.48778C70.808 7.75559 70.9888 8.11266 70.9888 8.559C70.9888 8.82681 70.8984 9.00535 70.808 9.27315C70.7177 9.45169 70.5369 9.63022 70.2658 9.71949C70.5369 9.80876 70.7177 9.9873 70.8984 10.1658C71.0791 10.3444 71.1695 10.6122 71.1695 10.9692C71.1695 11.4156 70.9888 11.7727 70.7177 12.0405C70.3562 12.3083 69.9947 12.4868 69.5428 12.4868H67.4643V12.3975ZM68.1873 9.36242H69.4525C69.7236 9.36242 69.9043 9.27315 70.0851 9.09461C70.2658 8.91608 70.3562 8.73754 70.3562 8.559C70.3562 8.38047 70.1754 8.11266 70.0851 7.93413C69.9043 7.75559 69.7236 7.66632 69.4525 7.66632H68.1873V9.36242ZM68.1873 11.7727H69.6332C69.9043 11.7727 70.0851 11.6834 70.2658 11.5049C70.4465 11.3263 70.5369 11.1478 70.5369 10.88C70.5369 10.7014 70.4465 10.4336 70.2658 10.2551C70.0851 10.0766 69.9043 9.9873 69.6332 9.9873H68.2777V11.7727H68.1873Z" fill="white" stroke="white" stroke-width="0.180741" stroke-miterlimit="10"/>
<path d="M72.0732 12.3975V7.04144H72.7962V11.7727H75.1458V12.3975H72.0732Z" fill="white" stroke="white" stroke-width="0.180741" stroke-miterlimit="10"/>
<path d="M79.2127 7.66632H76.7727V9.36242H79.0319V9.9873H76.7727V11.6834H79.2127V12.3975H76.0497V7.04144H79.2127V7.66632Z" fill="white" stroke="white" stroke-width="0.180741" stroke-miterlimit="10"/>
<path d="M83.3696 12.4868C83.0082 12.4868 82.5563 12.3976 82.1948 12.1297C81.8333 11.8619 81.5622 11.5049 81.4719 11.0585L82.1045 10.7907C82.1948 11.0585 82.3756 11.3263 82.5563 11.5049C82.8274 11.6834 83.0985 11.7727 83.3696 11.7727C83.6408 11.7727 83.9119 11.6834 84.183 11.5049C84.3637 11.3263 84.5445 11.1478 84.5445 10.88C84.5445 10.6122 84.4541 10.3444 84.183 10.1658C84.0022 9.98731 83.6408 9.80877 83.1889 9.7195C82.7371 9.54096 82.3756 9.36243 82.1045 9.18389C81.8333 8.91609 81.743 8.64828 81.743 8.29121C81.743 7.93413 81.9237 7.57706 82.1948 7.30926C82.4659 7.04145 82.9178 6.86292 83.3696 6.86292C83.8215 6.86292 84.183 6.95218 84.4541 7.21999C84.7252 7.48779 84.9059 7.66633 84.9963 7.93414L84.3637 8.20194C84.2734 8.0234 84.183 7.84487 84.0022 7.7556C83.8215 7.57706 83.5504 7.57706 83.2793 7.57706C83.0082 7.57706 82.8274 7.66633 82.5563 7.7556C82.3756 7.93413 82.2852 8.11267 82.2852 8.29121C82.2852 8.46974 82.3756 8.64828 82.5563 8.82682C82.7371 9.00535 83.0082 9.09462 83.3696 9.18389C83.6408 9.27316 83.8215 9.36243 84.0022 9.4517C84.183 9.54096 84.3637 9.63023 84.5445 9.80877C84.7252 9.89804 84.9059 10.0766 84.9963 10.3444C85.0867 10.5229 85.177 10.7907 85.177 11.0585C85.177 11.3263 85.0867 11.5941 84.9963 11.7727C84.9059 11.9512 84.7252 12.1297 84.5445 12.219C84.3637 12.3083 84.183 12.3975 84.0022 12.4868C83.8215 12.4868 83.6408 12.4868 83.3696 12.4868Z" fill="white" stroke="white" stroke-width="0.180741" stroke-miterlimit="10"/>
<path d="M88.0689 12.4868C87.4363 12.4868 86.9845 12.3083 86.623 11.8619C86.2615 11.5049 86.0807 10.9692 86.0807 10.3444V7.04144H86.8037V10.4336C86.8037 10.88 86.8941 11.2371 87.1652 11.5049C87.3459 11.7727 87.7074 11.8619 88.1593 11.8619C88.6111 11.8619 88.8822 11.7727 89.1533 11.5049C89.3341 11.2371 89.5148 10.88 89.5148 10.4336V7.04144H90.2378V10.4336C90.2378 11.0585 90.057 11.5941 89.6956 11.9512C89.2437 12.3083 88.7015 12.4868 88.0689 12.4868Z" fill="white" stroke="white" stroke-width="0.180741" stroke-miterlimit="10"/>
<path d="M91.232 12.3975V7.04144H93.0394C93.4912 7.04144 93.8527 7.21998 94.2142 7.48778C94.5757 7.75559 94.7564 8.20193 94.7564 8.64827C94.7564 9.00534 94.666 9.36242 94.3949 9.63022C94.1238 9.89803 93.8527 10.0766 93.4912 10.1658L95.0275 12.3083H94.2142L92.7683 10.1658H91.9549V12.3975H91.232ZM91.9549 9.54095H93.0394C93.3105 9.54095 93.5816 9.45169 93.7623 9.27315C93.9431 9.09461 94.0334 8.82681 94.0334 8.559C94.0334 8.2912 93.9431 8.11266 93.7623 7.93413C93.5816 7.75559 93.3105 7.66632 93.0394 7.66632H91.8646V9.54095H91.9549Z" fill="white" stroke="white" stroke-width="0.180741" stroke-miterlimit="10"/>
<defs>
<linearGradient id="paint0_linear_1598_105751" x1="20.2006" y1="8.56773" x2="5.22038" y2="23.7329" gradientUnits="userSpaceOnUse">
<stop stop-color="#00A0FF"/>
<stop offset="0.00657445" stop-color="#00A1FF"/>
<stop offset="0.2601" stop-color="#00BEFF"/>
<stop offset="0.5122" stop-color="#00D2FF"/>
<stop offset="0.7604" stop-color="#00DFFF"/>
<stop offset="1" stop-color="#00E3FF"/>
</linearGradient>
<linearGradient id="paint1_linear_1598_105751" x1="31.076" y1="18.6477" x2="9.20915" y2="18.6477" gradientUnits="userSpaceOnUse">
<stop stop-color="#FFE000"/>
<stop offset="0.4087" stop-color="#FFBD00"/>
<stop offset="0.7754" stop-color="#FFA500"/>
<stop offset="1" stop-color="#FF9C00"/>
</linearGradient>
<linearGradient id="paint2_linear_1598_105751" x1="22.936" y1="20.6961" x2="2.62163" y2="41.2613" gradientUnits="userSpaceOnUse">
<stop stop-color="#FF3A44"/>
<stop offset="1" stop-color="#C31162"/>
</linearGradient>
<linearGradient id="paint3_linear_1598_105751" x1="7.09442" y1="0.950074" x2="16.1657" y2="10.1333" gradientUnits="userSpaceOnUse">
<stop stop-color="#32A071"/>
<stop offset="0.0685" stop-color="#2DA771"/>
<stop offset="0.4762" stop-color="#15CF74"/>
<stop offset="0.8009" stop-color="#06E775"/>
<stop offset="1" stop-color="#00F076"/>
</linearGradient>
</defs>
</svg>
