<svg width="116" height="101" viewBox="0 0 116 101" fill="none" xmlns="http://www.w3.org/2000/svg">
<g clip-path="url(#clip0_1883_107503)">
<path d="M430.824 -508.542H-511.841V434.854H430.824V-508.542Z" fill="white"/>
<path d="M60.3001 40.5143H20.7647V78.2501H86.7513V58.4388C81.1212 58.1761 75.6727 56.3637 71.0057 53.2011C66.3387 50.0386 62.6342 45.6485 60.3001 40.5143Z" fill="#E36649"/>
<path d="M92.8786 80.137H19.3507C18.9757 80.137 18.616 79.9879 18.3509 79.7225C18.0857 79.4571 17.9367 79.0972 17.9367 78.7219V34.3823C17.9367 34.007 18.0857 33.647 18.3509 33.3816C18.616 33.1163 18.9757 32.9672 19.3507 32.9672H57.0573C57.4323 32.9672 57.792 33.1163 58.0572 33.3816C58.3224 33.647 58.4713 34.007 58.4713 34.3823C58.4713 34.7576 58.3224 35.1175 58.0572 35.3829C57.792 35.6483 57.4323 35.7974 57.0573 35.7974H20.7647V77.3068H91.4646V58.9106C91.4646 58.5353 91.6136 58.1753 91.8788 57.9099C92.1439 57.6446 92.5036 57.4955 92.8786 57.4955C93.2536 57.4955 93.6133 57.6446 93.8785 57.9099C94.1436 58.1753 94.2926 58.5353 94.2926 58.9106V78.7219C94.2926 79.0972 94.1436 79.4571 93.8785 79.7225C93.6133 79.9879 93.2536 80.137 92.8786 80.137Z" fill="#252D32"/>
<path d="M56.1147 63.571C55.802 63.5676 55.4984 63.4653 55.2474 63.2785L19.3224 35.5144C19.0249 35.2854 18.8305 34.9476 18.7819 34.5752C18.7332 34.2028 18.8344 33.8263 19.0632 33.5285C19.292 33.2308 19.6295 33.0362 20.0017 32.9875C20.3738 32.9389 20.75 33.0402 21.0475 33.2691L56.1147 60.3257L66.3237 52.4389C66.6213 52.21 66.9975 52.1087 67.3696 52.1573C67.7417 52.206 68.0793 52.4006 68.308 52.6983C68.5368 52.9961 68.638 53.3726 68.5894 53.745C68.5408 54.1174 68.3463 54.4552 68.0488 54.6842L56.9819 63.2785C56.731 63.4653 56.4274 63.5676 56.1147 63.571Z" fill="#252D32"/>
<path d="M92.0397 74.4768C91.7291 74.4782 91.427 74.3753 91.1818 74.1843L66.352 55.0145C66.0813 54.7772 65.9111 54.4455 65.8762 54.087C65.8414 53.7285 65.9444 53.3701 66.1644 53.085C66.3844 52.7999 66.7047 52.6095 67.0601 52.5526C67.4155 52.4957 67.7792 52.5765 68.0771 52.7787L92.9069 71.9579C93.1342 72.1403 93.2996 72.3886 93.3806 72.6687C93.4615 72.9488 93.454 73.2471 93.3591 73.5228C93.2641 73.7984 93.0865 74.0381 92.8503 74.2088C92.6141 74.3796 92.331 74.4732 92.0397 74.4768Z" fill="#252D32"/>
<path d="M20.1897 74.4767C19.8937 74.478 19.6047 74.3864 19.3636 74.2147C19.1224 74.0429 18.9411 73.7998 18.8453 73.5195C18.7495 73.2392 18.7441 72.9359 18.8297 72.6524C18.9153 72.3688 19.0876 72.1193 19.3224 71.9389L44.0203 52.8729C44.3182 52.6707 44.6819 52.5899 45.0373 52.6468C45.3927 52.7037 45.713 52.8942 45.933 53.1793C46.153 53.4644 46.256 53.8227 46.2212 54.1812C46.1863 54.5397 46.0161 54.8714 45.7453 55.1087L21.0475 74.2031C20.8 74.3873 20.4981 74.4836 20.1897 74.4767Z" fill="#252D32"/>
<path d="M105.133 93.3445H7.09608C6.72107 93.3445 6.36141 93.1954 6.09623 92.93C5.83106 92.6647 5.68208 92.3047 5.68208 91.9294V25.5615C5.68457 24.2737 6.19685 23.0394 7.10675 22.1288C8.01665 21.2182 9.25002 20.7055 10.5368 20.703H58C58.375 20.703 58.7347 20.8521 58.9999 21.1175C59.265 21.3829 59.414 21.7428 59.414 22.1181C59.414 22.4934 59.265 22.8533 58.9999 23.1187C58.7347 23.3841 58.375 23.5332 58 23.5332H10.5368C10.0001 23.5357 9.48598 23.7502 9.10643 24.13C8.72688 24.5099 8.51256 25.0243 8.51008 25.5615V90.5143H103.719V56.0804C103.719 55.7051 103.868 55.3451 104.133 55.0797C104.399 54.8144 104.758 54.6653 105.133 54.6653C105.508 54.6653 105.868 54.8144 106.133 55.0797C106.398 55.3451 106.547 55.7051 106.547 56.0804V91.9294C106.547 92.3047 106.398 92.6647 106.133 92.93C105.868 93.1954 105.508 93.3445 105.133 93.3445Z" fill="#252D32"/>
<path d="M102.569 100.892H9.66012C7.35656 100.887 5.14877 99.9688 3.5199 98.3386C1.89103 96.7085 0.973731 94.499 0.96875 92.1936L0.96875 91.9295C0.96875 91.5542 1.11772 91.1943 1.3829 90.9289C1.64808 90.6635 2.00773 90.5144 2.38275 90.5144H109.847C110.222 90.5144 110.581 90.6635 110.846 90.9289C111.112 91.1943 111.261 91.5542 111.261 91.9295V92.1936C111.256 94.499 110.338 96.7085 108.709 98.3386C107.081 99.9688 104.873 100.887 102.569 100.892ZM3.90987 93.3446C4.17741 94.6741 4.89611 95.87 5.94414 96.7297C6.99217 97.5894 8.30502 98.06 9.66012 98.0616H102.569C103.924 98.06 105.237 97.5894 106.285 96.7297C107.333 95.87 108.052 94.6741 108.319 93.3446H3.90987Z" fill="#252D32"/>
<path d="M88.0805 52.6653C101.877 52.6653 113.061 41.4724 113.061 27.6653C113.061 13.8582 101.877 2.66528 88.0805 2.66528C74.284 2.66528 63.0998 13.8582 63.0998 27.6653C63.0998 41.4724 74.284 52.6653 88.0805 52.6653Z" fill="#006A52"/>
<path d="M88.1653 54.6653C82.8517 54.6653 77.6574 53.0884 73.2394 50.1341C68.8213 47.1797 65.3778 42.9806 63.3444 38.0677C61.311 33.1547 60.7789 27.7487 61.8156 22.5332C62.8522 17.3176 65.4109 12.5269 69.1682 8.7667C72.9255 5.00651 77.7125 2.44579 82.924 1.40836C88.1355 0.370925 93.5373 0.903373 98.4464 2.93837C103.356 4.97337 107.551 8.41952 110.504 12.841C113.456 17.2625 115.031 22.4608 115.031 27.7785C115.021 34.9063 112.188 41.7392 107.151 46.7793C102.115 51.8194 95.2875 54.6553 88.1653 54.6653ZM88.1653 3.72192C83.411 3.72192 78.7635 5.13282 74.8105 7.77619C70.8575 10.4196 67.7765 14.1767 65.9571 18.5725C64.1377 22.9682 63.6617 27.8052 64.5892 32.4717C65.5167 37.1383 67.8061 41.4247 71.1679 44.7891C74.5297 48.1535 78.8128 50.4447 83.4757 51.3729C88.1386 52.3011 92.9719 51.8247 97.3642 50.0039C101.757 48.1831 105.511 45.0998 108.152 41.1437C110.793 37.1876 112.203 32.5365 112.203 27.7785C112.196 21.4006 109.661 15.2861 105.154 10.7762C100.648 6.26635 94.5382 3.72941 88.1653 3.72192Z" fill="#252D32"/>
<path d="M97.8747 35.0238C96.5804 35.9741 95.1546 36.7305 93.6422 37.2691C92.0588 37.8675 90.376 38.1588 88.6838 38.1275C84.9131 38.1275 82.0097 37.0804 79.9641 34.9389C79.1144 34.0667 78.4481 33.033 78.0045 31.8987C77.5608 30.7645 77.3489 29.5527 77.3812 28.3351C77.283 25.5602 78.2628 22.8552 80.1149 20.7879C82.2736 18.42 85.3184 17.2691 89.4002 17.2691C91.8788 17.1363 94.327 17.8663 96.3288 19.3351C97.1558 20.0201 97.8128 20.8879 98.2479 21.8701C98.683 22.8523 98.8844 23.9221 98.8363 24.9955C98.9199 26.7306 98.4296 28.4449 97.4411 29.8728C97.1164 30.3889 96.6734 30.8199 96.1487 31.13C95.624 31.4402 95.0329 31.6204 94.4246 31.6558C94.1415 31.6665 93.8651 31.5686 93.6516 31.3823C93.5762 31.3823 93.3971 31.2408 93.3971 30.703C93.4045 30.4464 93.4329 30.1908 93.4819 29.9389L93.5856 29.5804C93.6516 29.2974 93.7364 28.9766 93.859 28.637L96.2439 20.703H92.8126L92.3507 22.2879C92.1327 21.8881 91.8491 21.5277 91.5118 21.2219C90.6344 20.4947 89.5206 20.1153 88.3821 20.1558C86.5628 20.1558 84.9225 21.0332 83.3765 22.8351C81.8928 24.524 81.081 26.6996 81.0953 28.9483C81.0433 30.4438 81.5395 31.9067 82.4904 33.0615C82.94 33.5885 83.502 34.0079 84.135 34.2888C84.768 34.5696 85.4559 34.7047 86.148 34.6841C87.2113 34.6855 88.2546 34.3951 89.1645 33.8445C89.7598 33.4874 90.2788 33.0161 90.6916 32.4577C90.8368 32.9494 91.1026 33.3969 91.4646 33.7596C91.8323 34.1003 92.2671 34.3603 92.7412 34.5228C93.2152 34.6852 93.718 34.7466 94.2172 34.703C95.2746 34.6734 96.3114 34.4031 97.249 33.9127C98.1865 33.4224 99.0001 32.7248 99.6281 31.8728C101.231 29.99 102.084 27.5815 102.022 25.1087C102.066 23.6677 101.791 22.2349 101.217 20.9124C100.644 19.5899 99.7855 18.4103 98.7043 17.4577C96.3665 15.3917 93.1331 14.3445 89.0985 14.3445C87.0325 14.2597 84.9713 14.6031 83.0442 15.3531C81.1171 16.1031 79.3656 17.2436 77.8997 18.703C76.6733 19.9631 75.7086 21.454 75.0614 23.0895C74.4141 24.7249 74.0973 26.4725 74.129 28.2313C74.0924 31.2945 75.1982 34.2612 77.2304 36.5521C79.851 39.5709 83.4614 41.0332 88.269 41.0332C90.5547 41.0611 92.8253 40.6578 94.9619 39.8445C96.6169 39.2412 98.1639 38.3747 99.5433 37.2785L99.8638 36.9955L98.2518 34.7691L97.8747 35.0238ZM91.097 25.0143C91.0326 26.5882 90.6205 28.1283 89.8904 29.5238C89.1174 31.1087 88.1182 31.8728 86.8267 31.8728C86.5467 31.8687 86.2711 31.8022 86.02 31.6782C85.7689 31.5542 85.5486 31.3757 85.375 31.1558C84.935 30.5361 84.7249 29.782 84.7811 29.0238C84.8185 27.5252 85.2757 26.0673 86.1009 24.8162C86.921 23.4766 87.8919 22.7974 88.9948 22.7974C89.2814 22.7809 89.5679 22.8301 89.8326 22.9413C90.0972 23.0525 90.333 23.2227 90.5219 23.4389C90.8878 23.8829 91.0908 24.4389 91.097 25.0143Z" fill="white"/>
</g>
<defs>
<clipPath id="clip0_1883_107503">
<rect width="114.062" height="100" fill="white" transform="translate(0.96875 0.891724)"/>
</clipPath>
</defs>
</svg>
