<svg width="84" height="101" viewBox="0 0 84 101" fill="none" xmlns="http://www.w3.org/2000/svg">
<rect x="14.1239" y="10.6262" width="69.0266" height="90.2655" fill="#E36649"/>
<g clip-path="url(#clip0_1901_107731)">
<path d="M67.9293 2.21916V0.891724H2.70802C1.73457 0.891724 0.849609 1.77668 0.849609 2.75013V89.2103C0.849609 90.2723 1.73457 91.0687 2.70802 91.0687H67.9293C68.9912 91.0687 69.7877 90.1838 69.7877 89.2103V2.75013C69.8762 1.77668 68.9912 0.891724 67.9293 0.891724V2.21916V3.54659V2.75013H67.2213C67.2213 3.19261 67.5753 3.54659 67.9293 3.54659V2.75013H67.2213V89.2103H67.9293V88.5023C67.4868 88.5023 67.2213 88.8563 67.2213 89.2103H67.9293V88.5023H2.70802V89.2103H3.50448C3.50448 88.8563 3.15049 88.5023 2.70802 88.5023V89.2103H3.50448V2.75013H2.70802V3.4581C3.15049 3.54659 3.50448 3.19261 3.50448 2.75013H2.70802V3.4581H67.9293V2.21916Z" fill="#252D32"/>
<path d="M11.1594 29.5643C16.0267 29.5643 20.8939 29.5643 25.7612 29.5643C33.5488 29.5643 41.3364 29.5643 49.2125 29.5643C50.9824 29.5643 52.7523 29.5643 54.5222 29.5643C56.4691 29.5643 56.4691 26.5554 54.5222 26.5554C49.655 26.5554 44.7877 26.5554 39.9205 26.5554C32.1328 26.5554 24.3452 26.5554 16.4691 26.5554C14.6992 26.5554 12.9293 26.5554 11.1594 26.5554C9.21249 26.5554 9.21249 29.5643 11.1594 29.5643Z" fill="white"/>
<path d="M11.1594 40.1838C15.7612 40.1838 20.2744 40.1838 24.8762 40.1838C32.2213 40.1838 39.478 40.1838 46.8231 40.1838C48.5045 40.1838 50.1859 40.1838 51.8674 40.1838C53.8143 40.1838 53.8143 37.1749 51.8674 37.1749C47.2656 37.1749 42.7523 37.1749 38.1505 37.1749C30.8054 37.1749 23.5488 37.1749 16.2036 37.1749C14.5222 37.1749 12.8408 37.1749 11.1594 37.1749C9.21249 37.1749 9.21249 40.1838 11.1594 40.1838Z" fill="white"/>
<path d="M11.1594 18.9448C16.6461 18.9448 22.1328 18.9448 27.6196 18.9448C36.3806 18.9448 45.0532 18.9448 53.8143 18.9448C55.8497 18.9448 57.7966 18.9448 59.832 18.9448C61.7789 18.9448 61.7789 15.9359 59.832 15.9359C54.3452 15.9359 48.8585 15.9359 43.3718 15.9359C34.6107 15.9359 25.9382 15.9359 17.1771 15.9359C15.1417 15.9359 13.1948 15.9359 11.1594 15.9359C9.21249 15.9359 9.21249 18.9448 11.1594 18.9448Z" fill="white"/>
<path d="M11.1594 50.8033C16.6461 50.8033 22.1328 50.8033 27.6196 50.8033C36.3806 50.8033 45.0532 50.8033 53.8143 50.8033C55.8497 50.8033 57.7966 50.8033 59.832 50.8033C61.7789 50.8033 61.7789 47.7944 59.832 47.7944C54.3452 47.7944 48.8585 47.7944 43.3718 47.7944C34.6107 47.7944 25.9382 47.7944 17.1771 47.7944C15.1417 47.7944 13.1948 47.7944 11.1594 47.7944C9.21249 47.7944 9.21249 50.8033 11.1594 50.8033Z" fill="white"/>
<path d="M11.1594 61.4227C15.7612 61.4227 20.2744 61.4227 24.8762 61.4227C32.2213 61.4227 39.478 61.4227 46.8231 61.4227C48.5045 61.4227 50.1859 61.4227 51.8674 61.4227C53.8143 61.4227 53.8143 58.4138 51.8674 58.4138C47.2656 58.4138 42.7523 58.4138 38.1505 58.4138C30.8054 58.4138 23.5488 58.4138 16.2036 58.4138C14.5222 58.4138 12.8408 58.4138 11.1594 58.4138C9.21249 58.4138 9.21249 61.4227 11.1594 61.4227Z" fill="white"/>
<path d="M47.5753 77.352L42.0001 71.7767C41.4691 71.2458 40.7611 71.2458 40.2301 71.7767C39.6992 72.3077 39.6992 73.0157 40.2301 73.5466L47.5753 80.8918L61.5576 66.9095C62.0885 66.3785 62.0885 65.6705 61.5576 65.1396C61.0266 64.6086 60.3186 64.6086 59.7877 65.1396L47.5753 77.352Z" fill="white"/>
</g>
<defs>
<clipPath id="clip0_1901_107731">
<rect width="69.0266" height="90.2655" fill="white" transform="translate(0.849609 0.891724)"/>
</clipPath>
</defs>
</svg>
