<svg width="114" height="101" viewBox="0 0 114 101" fill="none" xmlns="http://www.w3.org/2000/svg">
<circle cx="69.2046" cy="60.3462" r="38.7955" fill="#E36649"/>
<g clip-path="url(#clip0_1913_107767)">
<path d="M65.7971 5.98267C40.7322 5.98267 20.3408 26.374 20.3408 51.4372C20.3408 76.5004 40.7322 96.8918 65.7954 96.8918C90.8586 96.8918 111.25 76.5004 111.25 51.4372C111.25 26.374 90.8586 5.98267 65.7971 5.98267ZM65.7971 88.6836C45.2589 88.6836 28.5506 71.9758 28.5506 51.4389C28.5506 30.9007 45.2592 14.1925 65.7971 14.1925C86.3336 14.1925 103.042 30.9011 103.042 51.4389C103.042 71.9754 86.3339 88.6836 65.7971 88.6836Z" fill="black"/>
<path d="M53.94 43.9882C57.0415 43.9882 59.5648 41.4643 59.5648 38.3634C59.5648 35.2618 57.0408 32.7379 53.94 32.7379C50.8384 32.7379 48.3152 35.2611 48.3152 38.3627C48.3145 41.4649 50.8384 43.9882 53.94 43.9882Z" fill="black"/>
<path d="M76.5921 43.9882C79.6936 43.9882 82.2169 41.4643 82.2169 38.3634C82.2169 35.2618 79.6929 32.7379 76.5921 32.7379C73.4905 32.7379 70.9673 35.2611 70.9673 38.3627C70.9666 41.4649 73.4905 43.9882 76.5921 43.9882Z" fill="black"/>
<path d="M65.6945 48.4723C53.6445 48.4723 43.0919 56.1828 39.4378 67.6581C38.9022 69.3383 39.8306 71.1345 41.5102 71.6688C43.1877 72.2017 44.9854 71.2759 45.5209 69.5964C48.3289 60.7805 56.4358 54.8569 65.6954 54.8569C74.9548 54.8569 83.0627 60.7805 85.8716 69.5964C86.3051 70.9537 87.5598 71.8201 88.9125 71.8201C89.2334 71.8201 89.5602 71.7707 89.8824 71.6687C91.5625 71.1331 92.4903 69.3375 91.9548 67.658C88.2996 56.1822 77.7462 48.4722 65.6963 48.4722L65.6945 48.4723Z" fill="black"/>
</g>
<defs>
<clipPath id="clip0_1913_107767">
<rect width="90.9091" height="90.9091" fill="white" transform="translate(20.3408 5.98267)"/>
</clipPath>
</defs>
</svg>
