<svg width="80" height="101" viewBox="0 0 80 101" fill="none" xmlns="http://www.w3.org/2000/svg">
<rect x="12.3529" y="47.9505" width="67.0588" height="52.9412" rx="13" fill="#E36649"/>
<path d="M58.5068 37.4527V22.611C58.5068 14.8516 54.3673 7.68128 47.6471 3.80114C40.9269 -0.0781639 32.6478 -0.0781639 25.9276 3.80114C19.2074 7.68128 15.0679 14.8516 15.0679 22.611V37.4527C10.9825 38.293 7.31175 40.516 4.67438 43.7472C2.03619 46.9776 0.593811 51.0193 0.588226 55.1903V76.9098C0.593882 81.7085 2.50242 86.3087 5.89605 89.7015C9.28884 93.0951 13.889 95.0037 18.6878 95.0093H54.8869C59.6857 95.0037 64.2859 93.0951 67.6787 89.7015C71.0723 86.3087 72.9809 81.7085 72.9865 76.9098V55.1903C72.9808 51.0193 71.5385 46.9776 68.9003 43.7472C66.263 40.516 62.5922 38.2931 58.5068 37.4527ZM22.3077 22.611C22.3077 17.4381 25.0679 12.6579 29.5475 10.0715C34.0271 7.48497 39.5476 7.48497 44.0272 10.0715C48.5068 12.6579 51.267 17.4381 51.267 22.611V37.0907H22.3077V22.611ZM65.7467 76.9098C65.7467 79.7904 64.6025 82.5521 62.5663 84.5891C60.5293 86.6254 57.7676 87.7695 54.8869 87.7695H18.6878C15.8072 87.7695 13.0455 86.6254 11.0084 84.5891C8.97219 82.5521 7.82805 79.7904 7.82805 76.9098V55.1903C7.82805 52.3096 8.97219 49.548 11.0084 47.5109C13.0454 45.4747 15.8072 44.3305 18.6878 44.3305H54.8869C57.7676 44.3305 60.5292 45.4747 62.5663 47.5109C64.6025 49.5479 65.7467 52.3096 65.7467 55.1903V76.9098Z" fill="black"/>
<path d="M36.7873 51.5704C34.6493 51.5631 32.618 52.5044 31.2404 54.1399C29.8635 55.7761 29.2834 57.9383 29.6551 60.0441C30.0268 62.1498 31.3131 63.9823 33.1674 65.0474V69.6701C33.1674 70.9638 33.8575 72.1588 34.9774 72.8052C36.0973 73.4516 37.4774 73.4516 38.5973 72.8052C39.7172 72.1588 40.4072 70.9637 40.4072 69.6701V65.0474C42.2616 63.9824 43.5481 62.1498 43.9196 60.0441C44.2913 57.9383 43.7111 55.7761 42.3343 54.1399C40.9566 52.5045 38.9253 51.5631 36.7873 51.5704H36.7873Z" fill="black"/>
</svg>
